<?xml version="1.0" standalone="no"?>
<!DOCTYPE svg PUBLIC "-//W3C//DTD SVG 20010904//EN"
 "http://www.w3.org/TR/2001/REC-SVG-20010904/DTD/svg10.dtd">
<svg version="1.0" xmlns="http://www.w3.org/2000/svg"
 width="599.000000pt" height="668.000000pt" viewBox="0 0 599.000000 668.000000"
 preserveAspectRatio="xMidYMid meet">

<g transform="translate(0.000000,668.000000) scale(0.100000,-0.100000)"
fill="#000000" stroke="none">
<path d="M2868 6230 c-79 -98 -192 -250 -242 -326 l-47 -71 59 -59 c131 -131
204 -393 189 -679 -9 -177 -53 -282 -135 -324 -98 -50 -200 -32 -274 47 -65
70 -90 141 -95 277 l-5 110 41 53 c47 62 61 104 61 187 0 154 -126 277 -285
279 -164 1 -289 -127 -288 -295 2 -130 106 -255 231 -275 39 -6 45 -11 67 -54
58 -115 73 -280 33 -360 -34 -65 -67 -85 -141 -84 -74 0 -112 18 -177 83 -121
121 -198 373 -145 475 14 26 14 31 -2 49 -32 35 -206 145 -303 191 -52 25 -96
43 -98 42 -1 -2 130 -295 293 -651 162 -356 293 -651 290 -655 -3 -5 224 -220
505 -479 l509 -472 513 466 c282 256 514 474 514 483 1 9 129 294 284 632 346
756 314 681 285 670 -91 -35 -289 -151 -353 -207 l-43 -38 16 -40 c38 -89 -2
-263 -90 -395 -74 -112 -174 -171 -262 -157 -51 9 -83 34 -111 88 -21 40 -23
54 -19 144 3 82 10 115 36 181 30 79 33 82 69 88 121 19 219 130 230 261 6 83
-17 150 -73 213 -178 198 -500 74 -499 -193 0 -81 24 -141 81 -202 l35 -38 -5
-105 c-5 -129 -29 -198 -93 -270 -126 -139 -332 -85 -390 104 -22 71 -29 270
-15 395 24 207 90 370 188 462 l54 51 -27 42 c-64 98 -298 408 -313 413 -3 2
-27 -24 -53 -57z"/>
<path d="M1635 4166 c-33 -19 -292 -163 -575 -321 -283 -158 -552 -308 -598
-334 -46 -25 -78 -48 -70 -50 113 -40 805 -247 809 -243 13 13 501 973 497
977 -2 2 -30 -11 -63 -29z"/>
<path d="M4100 4193 c1 -17 499 -978 507 -977 16 2 813 247 810 250 -2 2
-1109 621 -1239 693 -43 23 -78 39 -78 34z"/>
<path d="M1507 3605 c-125 -250 -227 -460 -227 -465 0 -6 293 -541 651 -1188
819 -1479 882 -1592 876 -1567 -2 11 -63 223 -135 470 -72 248 -187 648 -257
890 -70 242 -158 546 -195 675 -256 887 -470 1630 -470 1634 0 29 -46 -56
-243 -449z"/>
<path d="M4002 3883 c-68 -236 -454 -1572 -648 -2248 -86 -297 -203 -702 -260
-899 -58 -197 -103 -360 -102 -361 2 -2 246 437 543 974 297 537 638 1154 759
1371 120 217 221 401 224 409 5 14 -447 931 -459 931 -3 0 -29 -80 -57 -177z"/>
<path d="M1874 4015 c36 -128 709 -2500 839 -2957 95 -333 175 -601 179 -595
4 7 8 66 9 132 2 144 7 133 17 -35 l7 -125 122 430 c67 237 296 1041 508 1788
212 747 385 1362 385 1367 0 8 -714 -649 -912 -839 l-28 -26 -45 -1154 c-24
-635 -47 -1156 -50 -1159 -3 -3 -5 12 -5 34 1 74 -81 2239 -86 2261 -4 20 -92
104 -709 677 -77 72 -162 151 -189 176 -33 31 -46 39 -42 25z"/>
<path d="M390 3386 c0 -3 401 -530 892 -1173 490 -642 1012 -1327 1160 -1520
148 -194 272 -353 275 -353 3 0 -1 10 -9 22 -8 13 -249 451 -535 973 -287 523
-620 1132 -743 1355 -122 223 -227 410 -233 416 -9 9 -788 284 -803 284 -2 0
-4 -2 -4 -4z"/>
<path d="M5005 3253 c-214 -74 -395 -140 -402 -146 -6 -7 -215 -383 -464 -837
-925 -1690 -1033 -1886 -1047 -1908 -8 -12 -12 -22 -9 -22 3 0 127 159 275
353 147 193 670 878 1160 1520 491 643 892 1170 892 1173 0 7 -11 4 -405 -133z"/>
</g>
</svg>
